<svg width="62" height="62" viewBox="0 0 62 62" fill="none" xmlns="http://www.w3.org/2000/svg">
<g filter="url(#filter0_d_2_7560)">
<rect width="32" height="32" rx="16" transform="matrix(-1 -8.74228e-08 -8.74228e-08 1 46.9087 8.19965)" fill="white"/>
<path d="M31.4556 17.607C31.3372 17.607 31.2228 17.6392 31.1235 17.6978L31.0288 17.7662L31.0278 17.7671L24.4272 23.4957C24.3266 23.5832 24.2462 23.6916 24.1909 23.813C24.1356 23.9345 24.1069 24.0663 24.1069 24.1998C24.1069 24.3332 24.1356 24.465 24.1909 24.5865C24.2462 24.7079 24.3266 24.8163 24.4272 24.9039L24.4282 24.9039L31.0698 30.6656L31.0708 30.6646C31.167 30.7496 31.2881 30.7915 31.4058 30.7915L33.0034 30.7915C33.4811 30.7915 33.6939 30.2035 33.3403 29.8941L33.3394 29.8931L27.9741 25.2359L37.1987 25.2359C37.4813 25.2358 37.7112 25.0067 37.7114 24.7242L37.7114 23.6753C37.7113 23.3927 37.4813 23.1627 37.1987 23.1626L27.9731 23.1626L33.3374 18.5064L33.3374 18.5054C33.6956 18.1953 33.4756 17.6073 33.0024 17.607L31.4556 17.607Z" fill="#363636" stroke="#363636" stroke-width="0.745423"/>
</g>
<defs>
<filter id="filter0_d_2_7560" x="0.000232697" y="-6.67572e-06" width="61.8169" height="61.8169" filterUnits="userSpaceOnUse" color-interpolation-filters="sRGB">
<feFlood flood-opacity="0" result="BackgroundImageFix"/>
<feColorMatrix in="SourceAlpha" type="matrix" values="0 0 0 0 0 0 0 0 0 0 0 0 0 0 0 0 0 0 127 0" result="hardAlpha"/>
<feOffset dy="6.70881"/>
<feGaussianBlur stdDeviation="7.45423"/>
<feComposite in2="hardAlpha" operator="out"/>
<feColorMatrix type="matrix" values="0 0 0 0 0 0 0 0 0 0 0 0 0 0 0 0 0 0 0.08 0"/>
<feBlend mode="normal" in2="BackgroundImageFix" result="effect1_dropShadow_2_7560"/>
<feBlend mode="normal" in="SourceGraphic" in2="effect1_dropShadow_2_7560" result="shape"/>
</filter>
</defs>
</svg>
